PathFileType	4	(X/Y/Z)	../Python\walking\Walking05\task.trc
DataRate	CameraRate	NumFrames	NumMarkers	Units	OrigDataRate	OrigDataStartFrame	OrigNumFrames
200.000000	200.000000	6	30	mm	200.000000	0	605
Frame#	Time	C7			RBAK			CLAV			STRN			T10			RASI			RPSI			LPSI			LASI			PE01			PE02			PE03			RTH1			RTH2			RTH3			RTB1			RTB2			RTB3			RHEE			RD5M			RTOE			LTH1			LTH2			LTH3			LTB1			LTB2			LTB3			LHEE			LTOE			LD5M			
		X1	Y1	Z1	X2	Y2	Z2	X3	Y3	Z3	X4	Y4	Z4	X5	Y5	Z5	X6	Y6	Z6	X7	Y7	Z7	X8	Y8	Z8	X9	Y9	Z9	X10	Y10	Z10	X11	Y11	Z11	X12	Y12	Z12	X13	Y13	Z13	X14	Y14	Z14	X15	Y15	Z15	X16	Y16	Z16	X17	Y17	Z17	X18	Y18	Z18	X19	Y19	Z19	X20	Y20	Z20	X21	Y21	Z21	X22	Y22	Z22	X23	Y23	Z23	X24	Y24	Z24	X25	Y25	Z25	X26	Y26	Z26	X27	Y27	Z27	X28	Y28	Z28	X29	Y29	Z29	X30	Y30	Z30	

1	0	-1167.153930664063	1485.70068359375	188.8201141357422	-1195.02685546875	1408.239135742188	360.121795654297	-1061.68701171875	1386.748901367188	200.0669860839845	-1024.2373046875	1190.253173828125	208.6923217773439	-1245.934326171875	1237.622680664063	203.8222961425782	-1032.803344726563	991.8200073242192	346.0798950195314	-1202.304443359375	1035.463256835938	282.5815734863282	-1218.751220703125	1038.191772460938	184.4371032714844	-1059.942016601563	983.359008789063	65.36676788330081	-1202.797241210938	1083.66748046875	233.2711486816407	-1210.302490234375	1023.636108398438	260.9518432617189	-1220.751831054688	1023.997131347657	210.6480865478517	-1006.948425292969	744.877380371094	399.3201904296877	-1048.601318359375	702.6067504882815	382.0604248046876	-1010.664794921875	670.1848144531252	373.9687500000001	-860.9353027343755	367.2202453613282	324.7583618164064	-883.5995483398442	310.5990600585939	324.0954895019532	-836.846801757813	292.8275756835939	314.6474609375001	-800.393188476563	10.30016899108887	221.2742462158204	-653.2774047851565	56.7448425292969	305.895477294922	-617.8247070312502	103.9319000244141	276.2150878906251	-1233.143798828125	710.6309204101565	51.81568908691409	-1271.480590820313	685.0529785156252	72.3576583862305	-1237.568603515625	633.3258056640627	66.87480163574222	-1392.603637695313	382.4274291992189	102.9206771850587	-1435.561645507813	361.1926879882814	116.4125671386719	-1407.013427734375	306.3694458007814	116.608741760254	-1587.465698242188	119.4113922119141	197.2750244140626	-1396.677001953125	30.29301071166994	190.0260009765626	-1446.82568359375	22.25855827331544	144.0751953125001	
2	0.005	-1159.84716796875	1485.923950195313	189.4248809814454	-1187.523315429688	1407.994384765625	360.6514892578126	-1054.011474609375	1387.349487304688	200.6362152099611	-1015.621826171875	1190.958251953125	208.9107513427736	-1237.518920898438	1237.203247070313	204.0807647705079	-1023.724731445313	992.2778930664067	345.8848266601564	-1193.58349609375	1035.775390625	282.7297363281251	-1209.692260742188	1037.905151367188	184.5199127197266	-1050.955444335938	982.6657104492192	65.08911132812503	-1194.119995117188	1083.764282226563	233.0738067626954	-1201.603271484375	1023.851623535157	260.9979248046876	-1211.734619140625	1023.926513671875	210.6654357910157	-998.9196777343755	745.198669433594	398.9591369628909	-1041.002075195313	703.1887817382815	381.9060058593751	-1003.260559082032	670.4185791015627	373.5289916992189	-855.9973754882817	366.0819091796876	324.9148864746095	-879.001831054688	309.5779418945314	323.816131591797	-832.2372436523442	291.5358276367189	314.5432739257814	-799.137329101563	11.31111717224121	220.5347290039064	-651.6238403320315	51.4959411621094	306.2181701660157	-614.116638183594	97.3684921264649	277.4517822265626	-1226.083251953125	710.9893798828127	51.93512725830081	-1264.430786132813	685.5836181640627	72.71339416503909	-1230.879638671875	633.5372314453127	66.84957122802737	-1388.117309570313	384.2952575683596	102.6563720703126	-1431.215698242188	363.4599914550782	116.2954330444337	-1403.278564453125	308.3297119140626	116.1548461914063	-1585.666870117188	123.3362274169922	197.3598022460939	-1396.461303710938	30.34089660644533	189.9295043945313	-1446.704711914063	22.54122734069825	144.0735015869141	
3	0.01	-1152.550537109375	1486.17578125	190.0054626464844	-1180.034057617188	1407.789672851563	361.1550292968751	-1046.357421875	1387.96728515625	201.1801605224611	-1007.053771972657	1191.687622070313	209.1088104248048	-1229.148193359375	1236.84326171875	204.3054351806642	-1014.7412109375	992.852905273438	345.7089233398439	-1184.933349609375	1036.154174804688	282.8123474121095	-1200.707275390625	1037.676025390625	184.5381164550782	-1042.009399414063	982.001098632813	64.88788604736331	-1185.503173828125	1083.914306640625	232.8130187988282	-1192.967895507813	1024.127319335938	260.9910583496095	-1202.790405273438	1023.91015625	210.6321868896486	-990.9210815429692	745.6447753906252	398.6157836914065	-1033.436645507813	703.8933715820315	381.831024169922	-995.9190063476567	670.785827636719	373.1600341796876	-851.0764160156255	365.1065063476564	325.0533142089845	-874.408569335938	308.7200622558595	323.6156005859376	-827.6547851562505	290.4172668457032	314.4473571777345	-797.9331054687505	12.30664634704591	219.8972320556642	-650.007019042969	46.64452743530275	306.474578857422	-610.5841064453127	91.12940216064456	278.3951721191407	-1218.858764648438	711.2990722656252	52.09272384643558	-1257.197631835938	686.046569824219	73.10678863525393	-1223.993896484375	633.7124023437502	66.852653503418	-1383.307006835938	386.0834045410159	102.3803863525391	-1426.544311523438	365.6466064453126	116.1655883789063	-1399.22265625	310.2146301269532	115.6704025268555	-1583.462524414063	127.2936782836915	197.2866973876954	-1396.30517578125	30.35732841491701	189.8452453613282	-1446.527099609375	22.85407066345216	144.0450439453126	
4	0.015	-1145.264282226563	1486.456298828125	190.5618743896485	-1172.558959960938	1407.625	361.6324462890626	-1038.724975585938	1388.602294921875	201.6988372802736	-998.5332641601567	1192.441528320313	209.2865447998048	-1220.822265625	1236.542602539063	204.496307373047	-1005.852905273438	993.5449218750005	345.552215576172	-1176.354248046875	1036.599609375	282.8294372558595	-1191.796508789063	1037.50439453125	184.4917449951172	-1033.10400390625	981.365112304688	64.76308441162112	-1176.946533203125	1084.11767578125	232.4888458251954	-1184.396362304688	1024.463256835938	260.9312133789064	-1193.919067382813	1023.948059082032	210.5483703613282	-982.9526977539067	746.2156372070315	398.2901916503909	-1025.905029296875	704.7203369140627	381.835418701172	-988.639770507813	671.286315917969	372.8619384765626	-846.172485351563	364.2937011718751	325.1735229492189	-869.820190429688	308.0251464843751	323.4937744140626	-823.0997924804692	289.4714355468751	314.3596801757814	-796.7810058593755	13.2859115600586	219.3615875244142	-648.4275512695315	42.19053268432619	306.6649780273439	-607.2280883789065	85.2155685424805	279.0460510253907	-1211.47021484375	711.5595703125002	52.288444519043	-1249.781127929688	686.4414672851565	73.53778076171878	-1216.911499023438	633.8511962890627	66.88394927978518	-1378.172485351563	387.7915039062502	102.0927047729493	-1421.547241210938	367.7521972656251	116.0229415893555	-1394.845092773438	312.0239257812501	115.155387878418	-1580.853393554688	131.2832336425782	197.0567626953126	-1396.20849609375	30.34251022338869	189.7732391357422	-1446.292358398438	23.19727897644044	143.9898834228516	
5	0.02	-1137.988037109375	1486.765502929688	191.0940856933594	-1165.098266601563	1407.50048828125	362.0836791992189	-1031.114013671875	1389.254516601563	202.1922149658204	-990.0603027343755	1193.219604492188	209.4439544677736	-1212.541259765625	1236.30126953125	204.6534271240236	-997.0598754882817	994.3535766601567	345.414764404297	-1167.846313476563	1037.111450195313	282.7811279296876	-1182.9599609375	1037.390014648438	184.3809967041016	-1024.239624023438	980.7578125000005	64.71464538574222	-1168.450439453125	1084.374267578125	232.1015167236329	-1175.888793945313	1024.859252929688	260.818572998047	-1185.120849609375	1024.0400390625	210.4141540527345	-975.0144653320317	746.9107666015627	397.9824829101565	-1018.406616210938	705.6689453125002	381.919158935547	-981.4216918945317	671.9196777343752	372.6347961425782	-841.285766601563	363.6423645019532	325.2752380371095	-865.2374877929692	307.4922485351564	323.4504699707032	-818.5733032226567	288.6969299316407	314.2799682617189	-795.6821899414067	14.24675846099854	218.9270477294923	-646.8872680664065	38.13340377807619	306.7901611328126	-604.0506591796877	79.62919616699222	279.4067687988282	-1203.91796875	711.7700805664065	52.52214813232425	-1242.18115234375	686.767272949219	74.00624084472659	-1209.632080078125	633.952575683594	66.94314575195315	-1372.712890625	389.418640136719	101.7932434082032	-1416.2236328125	369.7759399414064	115.8672256469727	-1390.1455078125	313.7567749023439	114.6098098754883	-1577.841918945313	135.3035430908204	196.673065185547	-1396.170654296875	30.29708290100099	189.7135925292969	-1445.999877929688	23.57145690917969	143.9081726074219	
6	0.025	-1130.72216796875	1487.103271484375	191.6021118164063	-1157.651733398438	1407.416015625	362.5088195800782	-1023.524780273438	1389.923706054688	202.6603240966798	-981.635131835938	1194.021606445313	209.5810852050782	-1204.30517578125	1236.119384765625	204.7768707275392	-988.3621215820317	995.2782592773442	345.2966918945314	-1159.409545898438	1037.689086914063	282.6677856445314	-1174.198120117188	1037.332885742188	184.2062377929688	-1015.417175292969	980.179321289063	64.7424240112305	-1160.015014648438	1084.683715820313	231.6515045166017	-1167.445434570313	1025.31494140625	260.6535034179689	-1176.396240234375	1024.185791015625	210.2299041748048	-967.1062011718755	747.729187011719	397.693054199219	-1010.940612792969	706.7374267578127	382.0820312500001	-974.2625122070317	672.6846313476565	372.4786376953126	-836.416870117188	363.1499023437501	325.3580017089845	-860.662231445313	307.1193237304689	323.4849853515626	-814.077514648438	288.0906677246095	314.207733154297	-794.6389770507817	15.18541622161866	218.5917358398439	-645.3896484375002	34.47111129760744	306.8518066406251	-601.0557250976565	74.37377929687503	279.4827880859376	-1196.201904296875	711.9288330078127	52.79360198974612	-1234.397583007813	687.021667480469	74.51188659667972	-1202.155151367188	634.0146484375002	67.02957153320315	-1366.926391601563	390.9627380371096	101.481803894043	-1410.571899414063	371.7159729003907	115.6978607177735	-1385.122314453125	315.4116210937501	114.0336837768555	-1574.432250976563	139.3521575927735	196.141082763672	-1396.190673828125	30.22252845764162	189.6664276123047	-1445.647583007813	23.97794342041016	143.8002014160157	
